<svg id="visual" viewBox="0 0 960 540" width="960" height="540" xmlns="http://www.w3.org/2000/svg" xmlns:xlink="http://www.w3.org/1999/xlink" version="1.1"><rect width="960" height="540" fill="#FFFFFF"></rect><g><g transform="translate(652 188)"><path d="M100 -58.1C117.5 -27.5 111.1 16.5 90.4 47.9C69.8 79.3 34.9 98.2 -0.8 98.6C-36.5 99.1 -73 81.1 -89.6 52C-106.2 23 -102.9 -17.3 -84.6 -48.3C-66.4 -79.3 -33.2 -101.2 4 -103.5C41.3 -105.8 82.6 -88.7 100 -58.1Z" fill="#FF0066"></path></g><g transform="translate(905 329)"><path d="M40.3 -20.9C48.9 -8.5 50.1 10.6 42.1 23.4C34.2 36.3 17.1 42.9 0.5 42.7C-16.1 42.4 -32.3 35.2 -39.2 22.9C-46.2 10.6 -44 -6.8 -36 -19C-27.9 -31.1 -13.9 -38.1 1 -38.6C15.9 -39.2 31.8 -33.4 40.3 -20.9Z" fill="#FF0066"></path></g><g transform="translate(319 330)"><path d="M50.4 -28.5C62 -9.2 65.6 15.4 55.8 34.6C46.1 53.7 23 67.6 0.2 67.4C-22.6 67.3 -45.1 53.2 -56.4 33.1C-67.7 13 -67.6 -13 -56.4 -32.2C-45.1 -51.3 -22.5 -63.6 -1.5 -62.7C19.5 -61.8 38.9 -47.8 50.4 -28.5Z" fill="#FF0066"></path></g></g></svg>