<svg id="visual" viewBox="0 0 900 600" width="900" height="600" xmlns="http://www.w3.org/2000/svg" xmlns:xlink="http://www.w3.org/1999/xlink" version="1.1"><rect x="0" y="0" width="900" height="600" fill="#ffffff"></rect><defs><linearGradient id="grad1_0" x1="33.3%" y1="100%" x2="100%" y2="0%"><stop offset="20%" stop-color="#ff0066" stop-opacity="1"></stop><stop offset="80%" stop-color="#ff0066" stop-opacity="1"></stop></linearGradient></defs><defs><linearGradient id="grad1_1" x1="33.3%" y1="100%" x2="100%" y2="0%"><stop offset="20%" stop-color="#ff0066" stop-opacity="1"></stop><stop offset="80%" stop-color="#ff4d7a" stop-opacity="1"></stop></linearGradient></defs><defs><linearGradient id="grad1_2" x1="33.3%" y1="100%" x2="100%" y2="0%"><stop offset="20%" stop-color="#ff728f" stop-opacity="1"></stop><stop offset="80%" stop-color="#ff4d7a" stop-opacity="1"></stop></linearGradient></defs><defs><linearGradient id="grad1_3" x1="33.3%" y1="100%" x2="100%" y2="0%"><stop offset="20%" stop-color="#ff728f" stop-opacity="1"></stop><stop offset="80%" stop-color="#ff91a4" stop-opacity="1"></stop></linearGradient></defs><defs><linearGradient id="grad1_4" x1="33.3%" y1="100%" x2="100%" y2="0%"><stop offset="20%" stop-color="#ffaeba" stop-opacity="1"></stop><stop offset="80%" stop-color="#ff91a4" stop-opacity="1"></stop></linearGradient></defs><defs><linearGradient id="grad1_5" x1="33.3%" y1="100%" x2="100%" y2="0%"><stop offset="20%" stop-color="#ffaeba" stop-opacity="1"></stop><stop offset="80%" stop-color="#ffc9d0" stop-opacity="1"></stop></linearGradient></defs><defs><linearGradient id="grad1_6" x1="33.3%" y1="100%" x2="100%" y2="0%"><stop offset="20%" stop-color="#ffe4e7" stop-opacity="1"></stop><stop offset="80%" stop-color="#ffc9d0" stop-opacity="1"></stop></linearGradient></defs><defs><linearGradient id="grad1_7" x1="33.3%" y1="100%" x2="100%" y2="0%"><stop offset="20%" stop-color="#ffe4e7" stop-opacity="1"></stop><stop offset="80%" stop-color="#ffffff" stop-opacity="1"></stop></linearGradient></defs><defs><linearGradient id="grad2_0" x1="0%" y1="100%" x2="66.7%" y2="0%"><stop offset="20%" stop-color="#ff0066" stop-opacity="1"></stop><stop offset="80%" stop-color="#ff0066" stop-opacity="1"></stop></linearGradient></defs><defs><linearGradient id="grad2_1" x1="0%" y1="100%" x2="66.7%" y2="0%"><stop offset="20%" stop-color="#ff4d7a" stop-opacity="1"></stop><stop offset="80%" stop-color="#ff0066" stop-opacity="1"></stop></linearGradient></defs><defs><linearGradient id="grad2_2" x1="0%" y1="100%" x2="66.7%" y2="0%"><stop offset="20%" stop-color="#ff4d7a" stop-opacity="1"></stop><stop offset="80%" stop-color="#ff728f" stop-opacity="1"></stop></linearGradient></defs><defs><linearGradient id="grad2_3" x1="0%" y1="100%" x2="66.7%" y2="0%"><stop offset="20%" stop-color="#ff91a4" stop-opacity="1"></stop><stop offset="80%" stop-color="#ff728f" stop-opacity="1"></stop></linearGradient></defs><defs><linearGradient id="grad2_4" x1="0%" y1="100%" x2="66.7%" y2="0%"><stop offset="20%" stop-color="#ff91a4" stop-opacity="1"></stop><stop offset="80%" stop-color="#ffaeba" stop-opacity="1"></stop></linearGradient></defs><defs><linearGradient id="grad2_5" x1="0%" y1="100%" x2="66.7%" y2="0%"><stop offset="20%" stop-color="#ffc9d0" stop-opacity="1"></stop><stop offset="80%" stop-color="#ffaeba" stop-opacity="1"></stop></linearGradient></defs><defs><linearGradient id="grad2_6" x1="0%" y1="100%" x2="66.7%" y2="0%"><stop offset="20%" stop-color="#ffc9d0" stop-opacity="1"></stop><stop offset="80%" stop-color="#ffe4e7" stop-opacity="1"></stop></linearGradient></defs><defs><linearGradient id="grad2_7" x1="0%" y1="100%" x2="66.7%" y2="0%"><stop offset="20%" stop-color="#ffffff" stop-opacity="1"></stop><stop offset="80%" stop-color="#ffe4e7" stop-opacity="1"></stop></linearGradient></defs><g transform="translate(900, 600)"><path d="M-297.5 0C-266.1 -38.1 -234.8 -76.3 -213.9 -123.5C-193 -170.7 -182.6 -227.1 -148.7 -257.6C-114.8 -288.1 -57.4 -292.8 0 -297.5L0 0Z" fill="#fff2f3"></path><path d="M-260.3 0C-232.9 -33.4 -205.4 -66.7 -187.2 -108.1C-168.9 -149.4 -159.8 -198.7 -130.1 -225.4C-100.5 -252.1 -50.2 -256.2 0 -260.3L0 0Z" fill="#ffd7dc"></path><path d="M-223.1 0C-199.6 -28.6 -176.1 -57.2 -160.4 -92.6C-144.8 -128.1 -137 -170.3 -111.5 -193.2C-86.1 -216.1 -43.1 -219.6 0 -223.1L0 0Z" fill="#ffbcc5"></path><path d="M-185.9 0C-166.3 -23.8 -146.7 -47.7 -133.7 -77.2C-120.6 -106.7 -114.1 -141.9 -93 -161C-71.8 -180.1 -35.9 -183 0 -185.9L0 0Z" fill="#ffa0af"></path><path d="M-148.7 0C-133.1 -19.1 -117.4 -38.1 -107 -61.8C-96.5 -85.4 -91.3 -113.5 -74.4 -128.8C-57.4 -144.1 -28.7 -146.4 0 -148.7L0 0Z" fill="#ff8299"></path><path d="M-111.5 0C-99.8 -14.3 -88 -28.6 -80.2 -46.3C-72.4 -64 -68.5 -85.2 -55.8 -96.6C-43.1 -108 -21.5 -109.8 0 -111.5L0 0Z" fill="#ff6184"></path><path d="M-74.4 0C-66.5 -9.5 -58.7 -19.1 -53.5 -30.9C-48.3 -42.7 -45.7 -56.8 -37.2 -64.4C-28.7 -72 -14.4 -73.2 0 -74.4L0 0Z" fill="#ff3470"></path><path d="M-37.2 0C-33.3 -4.8 -29.3 -9.5 -26.7 -15.4C-24.1 -21.3 -22.8 -28.4 -18.6 -32.2C-14.4 -36 -7.2 -36.6 0 -37.2L0 0Z" fill="#ff0066"></path></g><g transform="translate(0, 0)"><path d="M297.5 0C292.5 56.8 287.5 113.7 257.6 148.7C227.8 183.8 173.1 197.1 126 218.2C78.9 239.4 39.5 268.4 0 297.5L0 0Z" fill="#fff2f3"></path><path d="M260.3 0C255.9 49.7 251.5 99.5 225.4 130.1C199.3 160.8 151.4 172.4 110.3 191C69.1 209.5 34.5 234.9 0 260.3L0 0Z" fill="#ffd7dc"></path><path d="M223.1 0C219.3 42.6 215.6 85.3 193.2 111.5C170.8 137.8 129.8 147.8 94.5 163.7C59.2 179.5 29.6 201.3 0 223.1L0 0Z" fill="#ffbcc5"></path><path d="M185.9 0C182.8 35.5 179.7 71 161 93C142.4 114.9 108.2 123.2 78.8 136.4C49.3 149.6 24.7 167.8 0 185.9L0 0Z" fill="#ffa0af"></path><path d="M148.7 0C146.2 28.4 143.7 56.8 128.8 74.4C113.9 91.9 86.5 98.5 63 109.1C39.5 119.7 19.7 134.2 0 148.7L0 0Z" fill="#ff8299"></path><path d="M111.5 0C109.7 21.3 107.8 42.6 96.6 55.8C85.4 68.9 64.9 73.9 47.3 81.8C29.6 89.8 14.8 100.7 0 111.5L0 0Z" fill="#ff6184"></path><path d="M74.4 0C73.1 14.2 71.9 28.4 64.4 37.2C56.9 45.9 43.3 49.3 31.5 54.6C19.7 59.8 9.9 67.1 0 74.4L0 0Z" fill="#ff3470"></path><path d="M37.2 0C36.6 7.1 35.9 14.2 32.2 18.6C28.5 23 21.6 24.6 15.8 27.3C9.9 29.9 4.9 33.6 0 37.2L0 0Z" fill="#ff0066"></path></g></svg>