<svg id="visual" viewBox="0 0 1920 540" width="1920" height="540" xmlns="http://www.w3.org/2000/svg" xmlns:xlink="http://www.w3.org/1999/xlink" version="1.1"><rect x="0" y="0" width="1920" height="540" fill="#FFFFFF"></rect><path d="M0 311L26.7 324.5C53.3 338 106.7 365 160 374.3C213.3 383.7 266.7 375.3 320 363C373.3 350.7 426.7 334.3 480 324.2C533.3 314 586.7 310 640 312.5C693.3 315 746.7 324 800 327.3C853.3 330.7 906.7 328.3 960 332C1013.3 335.7 1066.7 345.3 1120 358.7C1173.3 372 1226.7 389 1280 398.3C1333.3 407.7 1386.7 409.3 1440 393C1493.3 376.7 1546.7 342.3 1600 344.8C1653.3 347.3 1706.7 386.7 1760 397.8C1813.3 409 1866.7 392 1893.3 383.5L1920 375L1920 541L1893.3 541C1866.7 541 1813.3 541 1760 541C1706.7 541 1653.3 541 1600 541C1546.7 541 1493.3 541 1440 541C1386.7 541 1333.3 541 1280 541C1226.7 541 1173.3 541 1120 541C1066.7 541 1013.3 541 960 541C906.7 541 853.3 541 800 541C746.7 541 693.3 541 640 541C586.7 541 533.3 541 480 541C426.7 541 373.3 541 320 541C266.7 541 213.3 541 160 541C106.7 541 53.3 541 26.7 541L0 541Z" fill="#FF0066" stroke-linecap="round" stroke-linejoin="miter"></path></svg>